#!OML:ASF H:\IndianDance\Patient Classification 1\Patient 1\Session 1\dancer.ASF
:FULLY-SPECIFIED
:DEGREES
1333
root 7.53598 15.8456 1.41112 54.5562 -84.6802 -47.3993
lowerback 1.49277 3.77155 3.33254
upperback -2.53615 4.88058 -6.33099
thorax -2.63162 2.26228 -8.67386
lowerneck -16.2824 -6.48231 -6.42269
upperneck 26.8461 -12.0744 13.0825
head 12.9441 -4.67706 4.07903
rclavicle -2.64384e-014 4.29375e-014
rhumerus -21.1503 22.3956 -31.3656
rradius 61.6819
rwrist -83.4853
rhand -55.6205 34.8427
rfingers 7.12502
rthumb -27.9735 6.90701
lclavicle -2.64384e-014 4.29375e-014
lhumerus -49.1454 24.9787 61.4
lradius 120.934
lwrist 56.3393
lhand -14.3371 18.6442
lfingers 7.12502
lthumb 11.804 48.2916
rfemur -14.7314 11.8272 15.0379
rtibia 20.1355
rfoot -4.42852 -26.0748
rtoes -1.46757
lfemur -14.0985 -2.05278 -8.99506
ltibia 18.5804
lfoot -7.83286 4.8537
ltoes -7.81854
1334
root 7.53503 15.8445 1.40917 56.0487 -84.7845 -48.9703
lowerback 1.39321 3.83544 3.45764
upperback -2.44387 4.97059 -6.41008
thorax -2.44658 2.31377 -8.81914
lowerneck -16.2129 -6.54445 -6.50329
upperneck 26.6079 -12.1514 13.2381
head 12.8612 -4.71003 4.1343
rclavicle 3.37934e-015 -4.92986e-014
rhumerus -21.3276 27.7974 -31.1056
rradius 61.1153
rwrist -82.9954
rhand -55.4113 34.2448
rfingers 7.12502
rthumb -27.7735 6.2767
lclavicle 3.37934e-015 -4.92986e-014
lhumerus -48.7827 24.4782 61.108
lradius 121.256
lwrist 55.5221
lhand -14.2756 18.8044
lfingers 7.12502
lthumb 11.8633 48.4483
rfemur -14.6973 11.7897 15.0782
rtibia 20.1521
rfoot -4.39542 -25.8642
rtoes -1.64966
lfemur -13.953 -2.04963 -8.97566
ltibia 18.5735
lfoot -7.82941 5.00459
ltoes -7.83696
1335
root 7.53412 15.8434 1.4067 57.6286 -84.8934 -50.6288
lowerback 1.29425 3.90877 3.57374
upperback -2.35081 5.07282 -6.48889
thorax -2.259 2.37214 -8.95874
lowerneck -16.1545 -6.61511 -6.60166
upperneck 26.3843 -12.2428 13.4081
head 12.7916 -4.74887 4.19577
rclavicle -2.66371e-014 5.88403e-014
rhumerus -21.5848 32.9416 -30.9383
rradius 60.642
rwrist -82.3178
rhand -55.1589 33.5207
rfingers 7.12502
rthumb -27.5321 5.51392
lclavicle -2.66371e-014 5.88403e-014
lhumerus -48.3338 23.9448 60.7974
lradius 121.56
lwrist 54.6392
lhand -14.1568 19.0053
lfingers 7.12502
lthumb 11.9779 48.6426
rfemur -14.6689 11.7505 15.1146
rtibia 20.1764
rfoot -4.36583 -25.6462
rtoes -1.83493
lfemur -13.8007 -2.05164 -8.95991
ltibia 18.5582
lfoot -7.82053 5.16724
ltoes -7.86481
1336
root 7.5333 15.8423 1.40373 59.3213 -85.0024 -52.3977
lowerback 1.19435 3.99327 3.68202
upperback -2.25853 5.18968 -6.56644
thorax -2.06911 2.43853 -9.09206
lowerneck -16.1036 -6.69503 -6.71433
upperneck 26.1728 -12.3493 13.5899
head 12.7332 -4.79413 4.2617
rclavicle -5.48646e-014 -5.40694e-014
rhumerus -21.9421 37.7713 -30.8768
rradius 60.2542
rwrist -81.4467
rhand -54.8487 32.6627
rfingers 7.12502
rthumb -27.2354 4.60904
lclavicle -5.48646e-014 -5.40694e-014
lhumerus -47.7937 23.359 60.4716
lradius 121.841
lwrist 53.6768
lhand -14.1002 19.191
lfingers 7.12502
lthumb 12.0325 48.8251
rfemur -14.6479 11.7087 15.1507
rtibia 20.2062
rfoot -4.33959 -25.4201
rtoes -2.01933
lfemur -13.646 -2.06195 -8.9434
ltibia 18.5366
lfoot -7.80734 5.34484
ltoes -7.89593
1337
root 7.53263 15.8413 1.40007 61.1216 -85.1137 -54.2697
lowerback 1.09684 4.0881 3.77271
upperback -2.17003 5.31965 -6.64224
thorax -1.88304 2.51192 -9.21321
lowerneck -16.054 -6.78141 -6.83469
upperneck 25.9691 -12.4672 13.7799
head 12.6817 -4.84428 4.3302
rclavicle 6.91771e-014 -6.36111e-015
rhumerus -22.3941 42.2385 -30.9328
rradius 59.9191
rwrist -80.3892
rhand -54.5588 31.6568
rfingers 7.12502
rthumb -26.9581 3.55992
lclavicle 6.91771e-014 -6.36111e-015
lhumerus -47.1632 22.7151 60.125
lradius 122.094
lwrist 52.6198
lhand -14.1196 19.3909
lfingers 7.12502
lthumb 12.0138 49.0261
rfemur -14.637 11.6805 15.1827
rtibia 20.2416
rfoot -4.31573 -25.2019
rtoes -2.19839
lfemur -13.4917 -2.08266 -8.92787
ltibia 18.5089
lfoot -7.78939 5.53882
ltoes -7.92304
1338
root 7.53186 15.8402 1.39572 63.0835 -85.2115 -56.3012
lowerback 1.00255 4.19175 3.85833
upperback -2.08698 5.46142 -6.71069
thorax -1.70264 2.59141 -9.32337
lowerneck -16.0098 -6.87551 -6.96057
upperneck 25.7787 -12.5981 13.9728
head 12.6398 -4.90007 4.39856
rclavicle -2.90226e-014 1.59028e-014
rhumerus -22.9365 46.2983 -31.1181
rradius 59.6027
rwrist -79.151
rhand -54.2492 30.4078
rfingers 7.12502
rthumb -26.6618 2.26545
lclavicle -2.90226e-014 1.59028e-014
lhumerus -46.4542 22.0039 59.7483
lradius 122.319
lwrist 51.465
lhand -14.2704 19.5899
lfingers 7.12502
lthumb 11.8684 49.2335
rfemur -14.63 11.6657 15.2278
rtibia 20.2799
rfoot -4.29819 -24.9946
rtoes -2.35946
lfemur -13.3374 -2.11352 -8.89725
ltibia 18.478
lfoot -7.77002 5.74683
ltoes -7.95509
